<svg width="200" height="100" viewBox="0 0 200 100" fill="none" xmlns="http://www.w3.org/2000/svg">
<path d="M200 100C200 86.8678 197.413 73.8642 192.388 61.7317C187.362 49.5991 179.997 38.5752 170.711 29.2893C161.425 20.0035 150.401 12.6375 138.268 7.61205C126.136 2.58658 113.132 -5.74026e-07 100 0C86.8678 5.74026e-07 73.8642 2.58658 61.7317 7.61205C49.5991 12.6375 38.5752 20.0035 29.2893 29.2893C20.0035 38.5752 12.6375 49.5991 7.61204 61.7317C2.58657 73.8642 -1.14805e-06 86.8678 0 100L100 100H200Z"
  fill="#F6F6F6"
  style="fill:#F6F6F6;fill:color(display-p3 0.9647 0.9647 0.9647);fill-opacity:1;"/>  
<line opacity="0.4" x1="100" y1="4.37115e-08" x2="100" y2="10" stroke="#2C61B5" 
  style="stroke:#2C61B5;stroke:color(display-p3 0.1725 0.3804 0.7098);stroke-opacity:1;" stroke-width="2"/>
<line opacity="0.4" x1="190" y1="99" x2="200" y2="99" stroke="#2C61B5"
  style="stroke:#2C61B5;stroke:color(display-p3 0.1725 0.3804 0.7098);stroke-opacity:1;" stroke-width="2"/>
<line opacity="0.4" y1="99" x2="10" y2="99" stroke="#2C61B5" style="stroke:#2C61B5;stroke:color(display-p3 0.1725 0.3804 0.7098);stroke-opacity:1;"
  stroke-width="2"/> 
</svg>
